<?xml version="1.0" encoding="UTF-8"?>
<svg width="16px" height="16px" version="1.1" xmlns="http://www.w3.org/2000/svg" xmlns:cc="http://creativecommons.org/ns#" xmlns:dc="http://purl.org/dc/elements/1.1/" xmlns:rdf="http://www.w3.org/1999/02/22-rdf-syntax-ns#">
 <metadata>
  <rdf:RDF>
   <cc:Work rdf:about="">
    <dc:format>image/svg+xml</dc:format>
    <dc:type rdf:resource="http://purl.org/dc/dcmitype/StillImage"/>
    <dc:title/>
   </cc:Work>
  </rdf:RDF>
 </metadata>
 <path d="m1.1348 14.745c0-0.33896 0.014124-0.38132 0.12711-0.38132 0.084735 0 0.12711-0.04237 0.12711-0.12711 0-0.12499 0.042373-0.12711 2.5422-0.12711 2.4998 0 2.5422-0.0021 2.5422-0.12711 0-0.08474 0.042373-0.12711 0.12711-0.12711 0.084735 0 0.12711-0.04237 0.12711-0.12711 0-0.08474 0.042373-0.12711 0.12711-0.12711 0.10592 0 0.12711-0.04237 0.12711-0.25422v-0.25422h-3.0506c-3.0082 0-3.0506-0.0017-3.0506-0.12711 0-0.08474-0.042373-0.12711-0.12711-0.12711-0.084735 0-0.12711-0.04237-0.12711-0.12711 0-0.08474-0.042373-0.12711-0.12711-0.12711-0.12614 0-0.12711-0.04237-0.12711-5.5927 0-5.5504 9.6297e-4 -5.5927 0.12711-5.5927 0.084735 0 0.12711-0.04237 0.12711-0.12711 0-0.084738 0.042373-0.12711 0.12711-0.12711s0.12711-0.04237 0.12711-0.12711c0-0.12635 0.042373-0.12711 7.118-0.12711 7.0757 0 7.118 7.567e-4 7.118 0.12711 0 0.084738 0.04237 0.12711 0.12711 0.12711 0.08474 0 0.12711 0.04237 0.12711 0.12711 0 0.084738 0.04237 0.12711 0.12711 0.12711 0.12614 0 0.12711 0.04237 0.12711 5.5927 0 5.5504-9.66e-4 5.5927-0.12711 5.5927-0.08474 0-0.12711 0.04237-0.12711 0.12711 0 0.08474-0.04237 0.12711-0.12711 0.12711-0.08474 0-0.12711 0.04237-0.12711 0.12711 0 0.12534-0.04237 0.12711-3.0506 0.12711h-3.0506v0.25422c0 0.21185 0.021181 0.25422 0.12711 0.25422 0.084735 0 0.12711 0.04237 0.12711 0.12711 0 0.08474 0.042373 0.12711 0.12711 0.12711 0.084735 0 0.12711 0.04237 0.12711 0.12711 0 0.12499 0.042373 0.12711 2.5422 0.12711 2.4998 0 2.5422 0.0021 2.5422 0.12711 0 0.08474 0.04237 0.12711 0.12711 0.12711 0.11298 0 0.12711 0.04237 0.12711 0.38132v0.38132h-13.728zm13.728-2.2879c0-0.08474 0.04237-0.12711 0.12711-0.12711 0.1261 0 0.12711-0.04237 0.12711-5.3385 0-5.2962-1e-3 -5.3385-0.12711-5.3385-0.08474 0-0.12711-0.04237-0.12711-0.12711 0-0.12632-0.04237-0.12711-6.8638-0.12711-6.8215 0-6.8638 7.846e-4 -6.8638 0.12711 0 0.084738-0.042373 0.12711-0.12711 0.12711-0.1261 0-0.12711 0.04237-0.12711 5.3385 0 5.2962 0.00101 5.3385 0.12711 5.3385 0.084735 0 0.12711 0.04237 0.12711 0.12711 0 0.12632 0.042373 0.12711 6.8638 0.12711 6.8215 0 6.8638-7.82e-4 6.8638-0.12711z"/>
 <path d="m9.0009 6.682v-2.625h4.75v5.25h-0.5v-0.5h-3.75v0.5h-0.5zm4.25 0.375v-1.25h-0.25v1h-0.25v0.75h-0.25v0.5h-0.75v-0.75h-0.25v-1h-0.25v1h-0.25v0.75h-0.75v-0.5h-0.25v-0.75h-0.25v-1h-0.25v2.5h3.75zm-2.5-0.125v-0.625h0.25v-1h0.75v1h0.25v1.25h0.25v-0.75h0.25v-1h0.25v-0.5h0.5v-0.75h-3.75v0.75h0.5v0.5h0.25v1h0.25v0.75h0.25z"/>
 <path d="m2.2509 7.682v-1.875h1.5v-0.5h0.5v0.5h2.75v3.75h-0.5v-0.5h-3.75v0.5h-0.5zm1 0.625v-0.25h0.75v-0.25h0.25v-0.25h-0.5v0.25h-0.75v-0.25h0.25v-0.25h-0.25v-0.25h0.25v-0.25h0.75v-0.25h0.25v-0.25h-1.5v2.25h0.5zm2.25 0.125v-0.125h-0.25v-0.25h-0.5v0.25h-0.75v0.25h1.5zm1-1v-1.125h-2v0.25h1.5v0.5h-0.25v0.5h-0.25v0.5h0.5v0.5h0.5zm-1.5 0v-0.125h0.25v-0.25h-1v0.25h0.5v0.25h0.25z"/>
 <path d="m2.5009 5.432v-0.125h-0.25v-0.25h-0.5v-1.25h2.5v-0.5h0.75v0.5h2.5v1.25h-0.5v-0.75h-1.5v0.75h0.75v-0.5h0.5v0.75h-0.25v0.25h-1.25v-0.25h-0.25v-1h-1v0.5h-0.25v0.25h-0.25v0.25h-0.25v0.25h-0.75zm0.5-0.5v-0.125h0.25v-0.25h0.25v-0.25h-1.25v0.75h0.75z"/>
</svg>
